<svg width="16" height="15" viewBox="0 0 16 15" fill="none" xmlns="http://www.w3.org/2000/svg">
<g filter="url(#filter0_d_127401_3)">
<path d="M13.7143 0.333344H2.28275C1.75894 0.333344 1.33334 0.764891 1.33334 1.29465V12.7054C1.33334 13.2351 1.75894 13.6667 2.28275 13.6667H13.7143C14.2381 13.6667 14.6667 13.2351 14.6667 12.7054V1.29465C14.6667 0.764891 14.2381 0.333344 13.7143 0.333344ZM5.36311 11.7619H3.38692V5.39882H5.36608V11.7619H5.36311ZM4.37501 4.52977C3.74108 4.52977 3.22918 4.01489 3.22918 3.38394C3.22918 2.75299 3.74108 2.23811 4.37501 2.23811C5.00596 2.23811 5.52084 2.75299 5.52084 3.38394C5.52084 4.01787 5.00894 4.52977 4.37501 4.52977V4.52977ZM12.7708 11.7619H10.7947V8.66668C10.7947 7.92858 10.7798 6.97918 9.76787 6.97918C8.73811 6.97918 8.58037 7.78275 8.58037 8.61311V11.7619H6.60418V5.39882H8.50001V6.26787H8.5268C8.79168 5.76787 9.43751 5.24108 10.3988 5.24108C12.3988 5.24108 12.7708 6.55953 12.7708 8.27382V11.7619V11.7619Z" fill="white"/>
</g>
<defs>
<filter id="filter0_d_127401_3" x="-2.66666" y="0.333344" width="21.3333" height="21.3333" filterUnits="userSpaceOnUse" color-interpolation-filters="sRGB">
<feFlood flood-opacity="0" result="BackgroundImageFix"/>
<feColorMatrix in="SourceAlpha" type="matrix" values="0 0 0 0 0 0 0 0 0 0 0 0 0 0 0 0 0 0 127 0" result="hardAlpha"/>
<feOffset dy="4"/>
<feGaussianBlur stdDeviation="2"/>
<feComposite in2="hardAlpha" operator="out"/>
<feColorMatrix type="matrix" values="0 0 0 0 0 0 0 0 0 0 0 0 0 0 0 0 0 0 0.25 0"/>
<feBlend mode="normal" in2="BackgroundImageFix" result="effect1_dropShadow_127401_3"/>
<feBlend mode="normal" in="SourceGraphic" in2="effect1_dropShadow_127401_3" result="shape"/>
</filter>
</defs>
</svg>
